<mxfile host="app.diagrams.net" modified="2023-05-22T15:31:45.649Z" agent="Mozilla/5.0 (X11; Linux x86_64; rv:109.0) Gecko/20100101 Firefox/113.0" etag="2TXe5Bt3_-SwrLHKppO3" version="21.3.2" type="device">
  <diagram name="Page-1" id="2YBvvXClWsGukQMizWep">
    <mxGraphModel dx="1911" dy="600" grid="1" gridSize="10" guides="1" tooltips="1" connect="1" arrows="1" fold="1" page="1" pageScale="1" pageWidth="850" pageHeight="1100" math="0" shadow="0">
      <root>
        <mxCell id="0" />
        <mxCell id="1" parent="0" />
        <mxCell id="aM9ryv3xv72pqoxQDRHE-1" value="&lt;div&gt;Неавторизованный&lt;/div&gt;&lt;div&gt;пользователь&lt;br&gt;&lt;/div&gt;" style="shape=umlLifeline;perimeter=lifelinePerimeter;whiteSpace=wrap;html=1;container=0;dropTarget=0;collapsible=0;recursiveResize=0;outlineConnect=0;portConstraint=eastwest;newEdgeStyle={&quot;edgeStyle&quot;:&quot;elbowEdgeStyle&quot;,&quot;elbow&quot;:&quot;vertical&quot;,&quot;curved&quot;:0,&quot;rounded&quot;:0};" parent="1" vertex="1">
          <mxGeometry x="-30" y="40" width="110" height="880" as="geometry" />
        </mxCell>
        <mxCell id="aM9ryv3xv72pqoxQDRHE-2" value="" style="html=1;points=[];perimeter=orthogonalPerimeter;outlineConnect=0;targetShapes=umlLifeline;portConstraint=eastwest;newEdgeStyle={&quot;edgeStyle&quot;:&quot;elbowEdgeStyle&quot;,&quot;elbow&quot;:&quot;vertical&quot;,&quot;curved&quot;:0,&quot;rounded&quot;:0};" parent="aM9ryv3xv72pqoxQDRHE-1" vertex="1">
          <mxGeometry x="50" y="70" width="10" height="60" as="geometry" />
        </mxCell>
        <mxCell id="p_-L6s0yg1b0csm5oqxf-1" value="" style="html=1;points=[];perimeter=orthogonalPerimeter;outlineConnect=0;targetShapes=umlLifeline;portConstraint=eastwest;newEdgeStyle={&quot;edgeStyle&quot;:&quot;elbowEdgeStyle&quot;,&quot;elbow&quot;:&quot;vertical&quot;,&quot;curved&quot;:0,&quot;rounded&quot;:0};" parent="aM9ryv3xv72pqoxQDRHE-1" vertex="1">
          <mxGeometry x="50" y="150" width="10" height="60" as="geometry" />
        </mxCell>
        <mxCell id="p_-L6s0yg1b0csm5oqxf-2" value="" style="html=1;points=[];perimeter=orthogonalPerimeter;outlineConnect=0;targetShapes=umlLifeline;portConstraint=eastwest;newEdgeStyle={&quot;edgeStyle&quot;:&quot;elbowEdgeStyle&quot;,&quot;elbow&quot;:&quot;vertical&quot;,&quot;curved&quot;:0,&quot;rounded&quot;:0};" parent="aM9ryv3xv72pqoxQDRHE-1" vertex="1">
          <mxGeometry x="285" y="160" width="10" height="60" as="geometry" />
        </mxCell>
        <mxCell id="p_-L6s0yg1b0csm5oqxf-3" value="Просмотр шаблонов" style="html=1;verticalAlign=bottom;endArrow=block;edgeStyle=elbowEdgeStyle;elbow=vertical;curved=0;rounded=0;" parent="aM9ryv3xv72pqoxQDRHE-1" source="p_-L6s0yg1b0csm5oqxf-1" target="p_-L6s0yg1b0csm5oqxf-2" edge="1">
          <mxGeometry x="0.0041" relative="1" as="geometry">
            <mxPoint x="155" y="170" as="sourcePoint" />
            <Array as="points">
              <mxPoint x="140" y="160" />
            </Array>
            <mxPoint as="offset" />
          </mxGeometry>
        </mxCell>
        <mxCell id="p_-L6s0yg1b0csm5oqxf-4" value="Страница шаблонов" style="html=1;verticalAlign=bottom;endArrow=block;edgeStyle=elbowEdgeStyle;elbow=vertical;curved=0;rounded=0;" parent="aM9ryv3xv72pqoxQDRHE-1" source="p_-L6s0yg1b0csm5oqxf-2" edge="1">
          <mxGeometry relative="1" as="geometry">
            <mxPoint x="135" y="200" as="sourcePoint" />
            <Array as="points">
              <mxPoint x="150" y="200" />
            </Array>
            <mxPoint x="60" y="200" as="targetPoint" />
          </mxGeometry>
        </mxCell>
        <mxCell id="p_-L6s0yg1b0csm5oqxf-8" value="" style="html=1;points=[];perimeter=orthogonalPerimeter;outlineConnect=0;targetShapes=umlLifeline;portConstraint=eastwest;newEdgeStyle={&quot;edgeStyle&quot;:&quot;elbowEdgeStyle&quot;,&quot;elbow&quot;:&quot;vertical&quot;,&quot;curved&quot;:0,&quot;rounded&quot;:0};" parent="aM9ryv3xv72pqoxQDRHE-1" vertex="1">
          <mxGeometry x="50" y="230" width="10" height="60" as="geometry" />
        </mxCell>
        <mxCell id="p_-L6s0yg1b0csm5oqxf-10" value="" style="html=1;points=[];perimeter=orthogonalPerimeter;outlineConnect=0;targetShapes=umlLifeline;portConstraint=eastwest;newEdgeStyle={&quot;edgeStyle&quot;:&quot;elbowEdgeStyle&quot;,&quot;elbow&quot;:&quot;vertical&quot;,&quot;curved&quot;:0,&quot;rounded&quot;:0};" parent="aM9ryv3xv72pqoxQDRHE-1" vertex="1">
          <mxGeometry x="50" y="310" width="10" height="60" as="geometry" />
        </mxCell>
        <mxCell id="p_-L6s0yg1b0csm5oqxf-41" value="" style="html=1;points=[];perimeter=orthogonalPerimeter;outlineConnect=0;targetShapes=umlLifeline;portConstraint=eastwest;newEdgeStyle={&quot;edgeStyle&quot;:&quot;elbowEdgeStyle&quot;,&quot;elbow&quot;:&quot;vertical&quot;,&quot;curved&quot;:0,&quot;rounded&quot;:0};" parent="aM9ryv3xv72pqoxQDRHE-1" vertex="1">
          <mxGeometry x="50" y="460" width="10" height="130" as="geometry" />
        </mxCell>
        <mxCell id="deH4zTe-xhXrfU7dDWA8-13" value="" style="html=1;points=[];perimeter=orthogonalPerimeter;outlineConnect=0;targetShapes=umlLifeline;portConstraint=eastwest;newEdgeStyle={&quot;edgeStyle&quot;:&quot;elbowEdgeStyle&quot;,&quot;elbow&quot;:&quot;vertical&quot;,&quot;curved&quot;:0,&quot;rounded&quot;:0};" vertex="1" parent="aM9ryv3xv72pqoxQDRHE-1">
          <mxGeometry x="50" y="600" width="10" height="130" as="geometry" />
        </mxCell>
        <mxCell id="deH4zTe-xhXrfU7dDWA8-24" value="" style="html=1;points=[];perimeter=orthogonalPerimeter;outlineConnect=0;targetShapes=umlLifeline;portConstraint=eastwest;newEdgeStyle={&quot;edgeStyle&quot;:&quot;elbowEdgeStyle&quot;,&quot;elbow&quot;:&quot;vertical&quot;,&quot;curved&quot;:0,&quot;rounded&quot;:0};" vertex="1" parent="aM9ryv3xv72pqoxQDRHE-1">
          <mxGeometry x="50" y="740" width="10" height="130" as="geometry" />
        </mxCell>
        <mxCell id="aM9ryv3xv72pqoxQDRHE-5" value="Мобильное приложение" style="shape=umlLifeline;perimeter=lifelinePerimeter;whiteSpace=wrap;html=1;container=0;dropTarget=0;collapsible=0;recursiveResize=0;outlineConnect=0;portConstraint=eastwest;newEdgeStyle={&quot;edgeStyle&quot;:&quot;elbowEdgeStyle&quot;,&quot;elbow&quot;:&quot;vertical&quot;,&quot;curved&quot;:0,&quot;rounded&quot;:0};" parent="1" vertex="1">
          <mxGeometry x="210" y="40" width="100" height="880" as="geometry" />
        </mxCell>
        <mxCell id="aM9ryv3xv72pqoxQDRHE-6" value="" style="html=1;points=[];perimeter=orthogonalPerimeter;outlineConnect=0;targetShapes=umlLifeline;portConstraint=eastwest;newEdgeStyle={&quot;edgeStyle&quot;:&quot;elbowEdgeStyle&quot;,&quot;elbow&quot;:&quot;vertical&quot;,&quot;curved&quot;:0,&quot;rounded&quot;:0};" parent="aM9ryv3xv72pqoxQDRHE-5" vertex="1">
          <mxGeometry x="45" y="80" width="10" height="50" as="geometry" />
        </mxCell>
        <mxCell id="p_-L6s0yg1b0csm5oqxf-5" value="" style="html=1;points=[];perimeter=orthogonalPerimeter;outlineConnect=0;targetShapes=umlLifeline;portConstraint=eastwest;newEdgeStyle={&quot;edgeStyle&quot;:&quot;elbowEdgeStyle&quot;,&quot;elbow&quot;:&quot;vertical&quot;,&quot;curved&quot;:0,&quot;rounded&quot;:0};" parent="aM9ryv3xv72pqoxQDRHE-5" vertex="1">
          <mxGeometry x="45" y="230" width="10" height="60" as="geometry" />
        </mxCell>
        <mxCell id="p_-L6s0yg1b0csm5oqxf-25" value="" style="html=1;points=[];perimeter=orthogonalPerimeter;outlineConnect=0;targetShapes=umlLifeline;portConstraint=eastwest;newEdgeStyle={&quot;edgeStyle&quot;:&quot;elbowEdgeStyle&quot;,&quot;elbow&quot;:&quot;vertical&quot;,&quot;curved&quot;:0,&quot;rounded&quot;:0};" parent="aM9ryv3xv72pqoxQDRHE-5" vertex="1">
          <mxGeometry x="45" y="310" width="10" height="60" as="geometry" />
        </mxCell>
        <mxCell id="p_-L6s0yg1b0csm5oqxf-28" value="" style="html=1;points=[];perimeter=orthogonalPerimeter;outlineConnect=0;targetShapes=umlLifeline;portConstraint=eastwest;newEdgeStyle={&quot;edgeStyle&quot;:&quot;elbowEdgeStyle&quot;,&quot;elbow&quot;:&quot;vertical&quot;,&quot;curved&quot;:0,&quot;rounded&quot;:0};" parent="aM9ryv3xv72pqoxQDRHE-5" vertex="1">
          <mxGeometry x="-190" y="380" width="10" height="60" as="geometry" />
        </mxCell>
        <mxCell id="p_-L6s0yg1b0csm5oqxf-29" value="" style="html=1;points=[];perimeter=orthogonalPerimeter;outlineConnect=0;targetShapes=umlLifeline;portConstraint=eastwest;newEdgeStyle={&quot;edgeStyle&quot;:&quot;elbowEdgeStyle&quot;,&quot;elbow&quot;:&quot;vertical&quot;,&quot;curved&quot;:0,&quot;rounded&quot;:0};" parent="aM9ryv3xv72pqoxQDRHE-5" vertex="1">
          <mxGeometry x="45" y="380" width="10" height="60" as="geometry" />
        </mxCell>
        <mxCell id="p_-L6s0yg1b0csm5oqxf-30" value="Просмотр категорий" style="html=1;verticalAlign=bottom;endArrow=block;edgeStyle=elbowEdgeStyle;elbow=vertical;curved=0;rounded=0;" parent="aM9ryv3xv72pqoxQDRHE-5" target="p_-L6s0yg1b0csm5oqxf-29" edge="1">
          <mxGeometry width="80" relative="1" as="geometry">
            <mxPoint x="-180" y="390" as="sourcePoint" />
            <mxPoint x="40" y="390" as="targetPoint" />
            <Array as="points">
              <mxPoint x="-20" y="390" />
              <mxPoint x="20" y="390" />
            </Array>
          </mxGeometry>
        </mxCell>
        <mxCell id="p_-L6s0yg1b0csm5oqxf-31" value="&lt;div&gt;Страница категорий&lt;br&gt;&lt;/div&gt;" style="html=1;verticalAlign=bottom;endArrow=block;edgeStyle=elbowEdgeStyle;elbow=vertical;curved=0;rounded=0;" parent="aM9ryv3xv72pqoxQDRHE-5" edge="1">
          <mxGeometry relative="1" as="geometry">
            <mxPoint x="45" y="430" as="sourcePoint" />
            <Array as="points">
              <mxPoint x="-90" y="430" />
            </Array>
            <mxPoint x="-180" y="430" as="targetPoint" />
          </mxGeometry>
        </mxCell>
        <mxCell id="p_-L6s0yg1b0csm5oqxf-45" value="" style="html=1;points=[];perimeter=orthogonalPerimeter;outlineConnect=0;targetShapes=umlLifeline;portConstraint=eastwest;newEdgeStyle={&quot;edgeStyle&quot;:&quot;elbowEdgeStyle&quot;,&quot;elbow&quot;:&quot;vertical&quot;,&quot;curved&quot;:0,&quot;rounded&quot;:0};" parent="aM9ryv3xv72pqoxQDRHE-5" vertex="1">
          <mxGeometry x="45" y="470" width="10" height="120" as="geometry" />
        </mxCell>
        <mxCell id="deH4zTe-xhXrfU7dDWA8-14" value="" style="html=1;points=[];perimeter=orthogonalPerimeter;outlineConnect=0;targetShapes=umlLifeline;portConstraint=eastwest;newEdgeStyle={&quot;edgeStyle&quot;:&quot;elbowEdgeStyle&quot;,&quot;elbow&quot;:&quot;vertical&quot;,&quot;curved&quot;:0,&quot;rounded&quot;:0};" vertex="1" parent="aM9ryv3xv72pqoxQDRHE-5">
          <mxGeometry x="45" y="600" width="10" height="120" as="geometry" />
        </mxCell>
        <mxCell id="deH4zTe-xhXrfU7dDWA8-25" value="" style="html=1;points=[];perimeter=orthogonalPerimeter;outlineConnect=0;targetShapes=umlLifeline;portConstraint=eastwest;newEdgeStyle={&quot;edgeStyle&quot;:&quot;elbowEdgeStyle&quot;,&quot;elbow&quot;:&quot;vertical&quot;,&quot;curved&quot;:0,&quot;rounded&quot;:0};" vertex="1" parent="aM9ryv3xv72pqoxQDRHE-5">
          <mxGeometry x="45" y="740" width="10" height="100" as="geometry" />
        </mxCell>
        <mxCell id="aM9ryv3xv72pqoxQDRHE-7" value="Просмотр счетов" style="html=1;verticalAlign=bottom;endArrow=block;edgeStyle=elbowEdgeStyle;elbow=vertical;curved=0;rounded=0;" parent="1" source="aM9ryv3xv72pqoxQDRHE-2" target="aM9ryv3xv72pqoxQDRHE-6" edge="1">
          <mxGeometry x="0.0041" relative="1" as="geometry">
            <mxPoint x="195" y="130" as="sourcePoint" />
            <Array as="points">
              <mxPoint x="180" y="120" />
            </Array>
            <mxPoint as="offset" />
          </mxGeometry>
        </mxCell>
        <mxCell id="aM9ryv3xv72pqoxQDRHE-9" value="Страница счетов" style="html=1;verticalAlign=bottom;endArrow=block;edgeStyle=elbowEdgeStyle;elbow=vertical;curved=0;rounded=0;" parent="1" source="aM9ryv3xv72pqoxQDRHE-6" target="aM9ryv3xv72pqoxQDRHE-2" edge="1">
          <mxGeometry relative="1" as="geometry">
            <mxPoint x="175" y="160" as="sourcePoint" />
            <Array as="points">
              <mxPoint x="190" y="160" />
            </Array>
            <mxPoint x="40" y="160" as="targetPoint" />
          </mxGeometry>
        </mxCell>
        <mxCell id="p_-L6s0yg1b0csm5oqxf-6" value="Просмотр операций" style="html=1;verticalAlign=bottom;endArrow=block;edgeStyle=elbowEdgeStyle;elbow=vertical;curved=0;rounded=0;" parent="1" source="p_-L6s0yg1b0csm5oqxf-8" target="p_-L6s0yg1b0csm5oqxf-5" edge="1">
          <mxGeometry relative="1" as="geometry">
            <mxPoint x="90" y="280" as="sourcePoint" />
            <Array as="points">
              <mxPoint x="60" y="280" />
            </Array>
          </mxGeometry>
        </mxCell>
        <mxCell id="p_-L6s0yg1b0csm5oqxf-9" value="Страница операций" style="html=1;verticalAlign=bottom;endArrow=block;edgeStyle=elbowEdgeStyle;elbow=vertical;curved=0;rounded=0;" parent="1" edge="1">
          <mxGeometry relative="1" as="geometry">
            <mxPoint x="255" y="320" as="sourcePoint" />
            <Array as="points">
              <mxPoint x="120" y="320" />
            </Array>
            <mxPoint x="30" y="320" as="targetPoint" />
          </mxGeometry>
        </mxCell>
        <mxCell id="p_-L6s0yg1b0csm5oqxf-26" value="Просмотр групп" style="html=1;verticalAlign=bottom;endArrow=block;edgeStyle=elbowEdgeStyle;elbow=vertical;curved=0;rounded=0;" parent="1" target="p_-L6s0yg1b0csm5oqxf-25" edge="1">
          <mxGeometry width="80" relative="1" as="geometry">
            <mxPoint x="30" y="360" as="sourcePoint" />
            <mxPoint x="250" y="360" as="targetPoint" />
            <Array as="points">
              <mxPoint x="190" y="360" />
              <mxPoint x="230" y="360" />
            </Array>
          </mxGeometry>
        </mxCell>
        <mxCell id="p_-L6s0yg1b0csm5oqxf-27" value="Страница групп" style="html=1;verticalAlign=bottom;endArrow=block;edgeStyle=elbowEdgeStyle;elbow=vertical;curved=0;rounded=0;" parent="1" edge="1">
          <mxGeometry relative="1" as="geometry">
            <mxPoint x="255" y="400" as="sourcePoint" />
            <Array as="points">
              <mxPoint x="120" y="400" />
            </Array>
            <mxPoint x="30" y="400" as="targetPoint" />
          </mxGeometry>
        </mxCell>
        <mxCell id="p_-L6s0yg1b0csm5oqxf-33" value="Сервер" style="shape=umlLifeline;perimeter=lifelinePerimeter;whiteSpace=wrap;html=1;container=0;dropTarget=0;collapsible=0;recursiveResize=0;outlineConnect=0;portConstraint=eastwest;newEdgeStyle={&quot;edgeStyle&quot;:&quot;elbowEdgeStyle&quot;,&quot;elbow&quot;:&quot;vertical&quot;,&quot;curved&quot;:0,&quot;rounded&quot;:0};" parent="1" vertex="1">
          <mxGeometry x="410" y="40" width="100" height="880" as="geometry" />
        </mxCell>
        <mxCell id="p_-L6s0yg1b0csm5oqxf-42" value="" style="html=1;points=[];perimeter=orthogonalPerimeter;outlineConnect=0;targetShapes=umlLifeline;portConstraint=eastwest;newEdgeStyle={&quot;edgeStyle&quot;:&quot;elbowEdgeStyle&quot;,&quot;elbow&quot;:&quot;vertical&quot;,&quot;curved&quot;:0,&quot;rounded&quot;:0};" parent="p_-L6s0yg1b0csm5oqxf-33" vertex="1">
          <mxGeometry x="45" y="480" width="10" height="80" as="geometry" />
        </mxCell>
        <mxCell id="deH4zTe-xhXrfU7dDWA8-18" value="&lt;div&gt;Сохранение нового&lt;/div&gt;&lt;div&gt;пользователя&lt;br&gt;&lt;/div&gt;" style="html=1;align=left;spacingLeft=2;endArrow=block;rounded=0;edgeStyle=orthogonalEdgeStyle;curved=0;rounded=0;" edge="1" target="p_-L6s0yg1b0csm5oqxf-33" parent="p_-L6s0yg1b0csm5oqxf-33">
          <mxGeometry relative="1" as="geometry">
            <mxPoint x="50" y="630" as="sourcePoint" />
            <Array as="points">
              <mxPoint x="110" y="630" />
              <mxPoint x="110" y="660" />
            </Array>
            <mxPoint x="80" y="659.9999999999999" as="targetPoint" />
          </mxGeometry>
        </mxCell>
        <mxCell id="deH4zTe-xhXrfU7dDWA8-26" value="" style="html=1;points=[];perimeter=orthogonalPerimeter;outlineConnect=0;targetShapes=umlLifeline;portConstraint=eastwest;newEdgeStyle={&quot;edgeStyle&quot;:&quot;elbowEdgeStyle&quot;,&quot;elbow&quot;:&quot;vertical&quot;,&quot;curved&quot;:0,&quot;rounded&quot;:0};" vertex="1" parent="p_-L6s0yg1b0csm5oqxf-33">
          <mxGeometry x="45" y="740" width="10" height="80" as="geometry" />
        </mxCell>
        <mxCell id="p_-L6s0yg1b0csm5oqxf-43" value="&lt;div&gt;Запрос на расчет кредита&lt;/div&gt;&lt;div&gt;без сохранения&lt;br&gt;&lt;/div&gt;" style="html=1;verticalAlign=bottom;endArrow=block;edgeStyle=elbowEdgeStyle;elbow=vertical;curved=0;rounded=0;exitX=0.5;exitY=0.286;exitDx=0;exitDy=0;exitPerimeter=0;" parent="1" source="p_-L6s0yg1b0csm5oqxf-45" target="p_-L6s0yg1b0csm5oqxf-42" edge="1">
          <mxGeometry relative="1" as="geometry">
            <mxPoint x="270" y="530" as="sourcePoint" />
            <Array as="points" />
          </mxGeometry>
        </mxCell>
        <mxCell id="p_-L6s0yg1b0csm5oqxf-44" value="&lt;div&gt;Ответ с рассчитанными&lt;/div&gt;&lt;div&gt;данными&lt;br&gt;&lt;/div&gt;" style="html=1;verticalAlign=bottom;endArrow=open;dashed=1;endSize=8;edgeStyle=elbowEdgeStyle;elbow=vertical;curved=0;rounded=0;" parent="1" source="p_-L6s0yg1b0csm5oqxf-42" target="p_-L6s0yg1b0csm5oqxf-45" edge="1">
          <mxGeometry relative="1" as="geometry">
            <mxPoint x="385" y="595" as="targetPoint" />
            <Array as="points">
              <mxPoint x="320" y="580" />
            </Array>
          </mxGeometry>
        </mxCell>
        <mxCell id="p_-L6s0yg1b0csm5oqxf-46" value="Рассчитать кредит" style="html=1;verticalAlign=bottom;endArrow=block;edgeStyle=elbowEdgeStyle;elbow=vertical;curved=0;rounded=0;" parent="1" source="p_-L6s0yg1b0csm5oqxf-41" target="p_-L6s0yg1b0csm5oqxf-45" edge="1">
          <mxGeometry width="80" relative="1" as="geometry">
            <mxPoint x="110" y="520" as="sourcePoint" />
            <mxPoint x="190" y="520" as="targetPoint" />
            <Array as="points">
              <mxPoint x="180" y="530" />
            </Array>
          </mxGeometry>
        </mxCell>
        <mxCell id="p_-L6s0yg1b0csm5oqxf-48" value="Данные о кредите" style="html=1;verticalAlign=bottom;endArrow=block;edgeStyle=elbowEdgeStyle;elbow=vertical;curved=0;rounded=0;" parent="1" edge="1">
          <mxGeometry relative="1" as="geometry">
            <mxPoint x="255" y="600" as="sourcePoint" />
            <Array as="points">
              <mxPoint x="120" y="600" />
            </Array>
            <mxPoint x="30" y="600" as="targetPoint" />
          </mxGeometry>
        </mxCell>
        <mxCell id="deH4zTe-xhXrfU7dDWA8-9" value="&lt;div&gt;Запрос на регистрацию&lt;/div&gt;&lt;div&gt;пользователя&lt;br&gt;&lt;/div&gt;" style="html=1;verticalAlign=bottom;endArrow=block;edgeStyle=elbowEdgeStyle;elbow=vertical;curved=0;rounded=0;exitX=0.5;exitY=0.286;exitDx=0;exitDy=0;exitPerimeter=0;" edge="1" parent="1">
          <mxGeometry x="0.0051" relative="1" as="geometry">
            <mxPoint x="260" y="664" as="sourcePoint" />
            <Array as="points" />
            <mxPoint x="455" y="664" as="targetPoint" />
            <mxPoint as="offset" />
          </mxGeometry>
        </mxCell>
        <mxCell id="deH4zTe-xhXrfU7dDWA8-10" value="&lt;div&gt;Ответ с&amp;nbsp; данными нового&lt;/div&gt;&lt;div&gt;пользователя&lt;br&gt;&lt;/div&gt;" style="html=1;verticalAlign=bottom;endArrow=open;dashed=1;endSize=8;edgeStyle=elbowEdgeStyle;elbow=vertical;curved=0;rounded=0;" edge="1" parent="1" source="deH4zTe-xhXrfU7dDWA8-15">
          <mxGeometry relative="1" as="geometry">
            <mxPoint x="265" y="700" as="targetPoint" />
            <Array as="points" />
            <mxPoint x="455" y="700" as="sourcePoint" />
          </mxGeometry>
        </mxCell>
        <mxCell id="deH4zTe-xhXrfU7dDWA8-11" value="Зарегистрироваться" style="html=1;verticalAlign=bottom;endArrow=block;edgeStyle=elbowEdgeStyle;elbow=vertical;curved=0;rounded=0;" edge="1" parent="1">
          <mxGeometry width="80" relative="1" as="geometry">
            <mxPoint x="30" y="650" as="sourcePoint" />
            <mxPoint x="255" y="650" as="targetPoint" />
            <Array as="points">
              <mxPoint x="180" y="650" />
            </Array>
          </mxGeometry>
        </mxCell>
        <mxCell id="deH4zTe-xhXrfU7dDWA8-12" value="&lt;div&gt;Возможности авторизованного&lt;/div&gt;пользователя" style="html=1;verticalAlign=bottom;endArrow=block;edgeStyle=elbowEdgeStyle;elbow=vertical;curved=0;rounded=0;" edge="1" parent="1">
          <mxGeometry relative="1" as="geometry">
            <mxPoint x="255" y="720" as="sourcePoint" />
            <Array as="points">
              <mxPoint x="120" y="720" />
            </Array>
            <mxPoint x="30" y="720" as="targetPoint" />
          </mxGeometry>
        </mxCell>
        <mxCell id="deH4zTe-xhXrfU7dDWA8-15" value="" style="html=1;points=[];perimeter=orthogonalPerimeter;outlineConnect=0;targetShapes=umlLifeline;portConstraint=eastwest;newEdgeStyle={&quot;edgeStyle&quot;:&quot;elbowEdgeStyle&quot;,&quot;elbow&quot;:&quot;vertical&quot;,&quot;curved&quot;:0,&quot;rounded&quot;:0};" vertex="1" parent="1">
          <mxGeometry x="455" y="640" width="10" height="90" as="geometry" />
        </mxCell>
        <mxCell id="deH4zTe-xhXrfU7dDWA8-20" value="&lt;div&gt;Запрос на вход&lt;br&gt;&lt;/div&gt;" style="html=1;verticalAlign=bottom;endArrow=block;edgeStyle=elbowEdgeStyle;elbow=vertical;curved=0;rounded=0;exitX=0.5;exitY=0.286;exitDx=0;exitDy=0;exitPerimeter=0;" edge="1" parent="1">
          <mxGeometry x="0.0041" relative="1" as="geometry">
            <mxPoint x="260" y="804" as="sourcePoint" />
            <Array as="points" />
            <mxPoint x="455" y="804" as="targetPoint" />
            <mxPoint as="offset" />
          </mxGeometry>
        </mxCell>
        <mxCell id="deH4zTe-xhXrfU7dDWA8-21" value="&lt;div&gt;Аутентификационный ключ&lt;br&gt;&lt;/div&gt;" style="html=1;verticalAlign=bottom;endArrow=open;dashed=1;endSize=8;edgeStyle=elbowEdgeStyle;elbow=vertical;curved=0;rounded=0;" edge="1" parent="1">
          <mxGeometry relative="1" as="geometry">
            <mxPoint x="265" y="840" as="targetPoint" />
            <Array as="points" />
            <mxPoint x="455" y="840" as="sourcePoint" />
          </mxGeometry>
        </mxCell>
        <mxCell id="deH4zTe-xhXrfU7dDWA8-22" value="Войти в аккаут" style="html=1;verticalAlign=bottom;endArrow=block;edgeStyle=elbowEdgeStyle;elbow=vertical;curved=0;rounded=0;" edge="1" parent="1">
          <mxGeometry x="-0.0222" width="80" relative="1" as="geometry">
            <mxPoint x="30" y="790" as="sourcePoint" />
            <mxPoint x="255" y="790" as="targetPoint" />
            <Array as="points">
              <mxPoint x="180" y="790" />
            </Array>
            <mxPoint as="offset" />
          </mxGeometry>
        </mxCell>
        <mxCell id="deH4zTe-xhXrfU7dDWA8-23" value="&lt;div&gt;Возможности авторизованного&lt;/div&gt;&lt;div&gt;пользователя&lt;br&gt;&lt;/div&gt;" style="html=1;verticalAlign=bottom;endArrow=block;edgeStyle=elbowEdgeStyle;elbow=vertical;curved=0;rounded=0;" edge="1" parent="1">
          <mxGeometry relative="1" as="geometry">
            <mxPoint x="255" y="860" as="sourcePoint" />
            <Array as="points">
              <mxPoint x="120" y="860" />
            </Array>
            <mxPoint x="30" y="860" as="targetPoint" />
          </mxGeometry>
        </mxCell>
      </root>
    </mxGraphModel>
  </diagram>
</mxfile>
